<?xml version="1.0" encoding="UTF-8" standalone="no"?>
<svg
   class="set-header-symbol"
   focusable="false"
   aria-hidden="true"
   viewBox="0 0 1000 1024"
   version="1.1"
   id="svg1"
   sodipodi:docname="jud-border.svg"
   width="1000"
   height="1024"
   inkscape:version="1.4.2 (f4327f4, 2025-05-13)"
   xmlns:inkscape="http://www.inkscape.org/namespaces/inkscape"
   xmlns:sodipodi="http://sodipodi.sourceforge.net/DTD/sodipodi-0.dtd"
   xmlns="http://www.w3.org/2000/svg"
   xmlns:svg="http://www.w3.org/2000/svg">
  <defs
     id="defs1" />
  <sodipodi:namedview
     id="namedview1"
     pagecolor="#ffffff"
     bordercolor="#000000"
     borderopacity="0.25"
     inkscape:showpageshadow="2"
     inkscape:pageopacity="0.0"
     inkscape:pagecheckerboard="0"
     inkscape:deskcolor="#d1d1d1"
     inkscape:zoom="0.79589844"
     inkscape:cx="468.65276"
     inkscape:cy="512"
     inkscape:window-width="1920"
     inkscape:window-height="1017"
     inkscape:window-x="-8"
     inkscape:window-y="-8"
     inkscape:window-maximized="1"
     inkscape:current-layer="path1" />
  <g
     id="path1"
     style="opacity:1">
    <path
       id="path2"
       style="baseline-shift:baseline;display:inline;overflow:visible;opacity:1;vector-effect:none;paint-order:stroke fill markers;enable-background:accumulate;stop-color:#000000;stop-opacity:1"
       d="M 486.95898,97.898438 412.66797,203.64062 v 29.5293 c -23.85328,4.79104 -61.04104,12.51361 -92.76367,21.33399 l -0.0234,0.006 -0.0215,0.006 c -17.56426,4.91227 -40.9324,0.30099 -56.17774,-3.68945 -1.26232,-4.87837 -3.03361,-10.1313 -5.58398,-15.48047 -9.80837,-20.57214 -36.5222,-42.89648 -73.02149,-42.89648 -36.682,0 -63.40808,22.86276 -73.11328,43.64453 -4.8526,10.39089 -6.77639,19.90222 -7.68359,27.07617 -0.45361,3.58698 -0.63404,6.60328 -0.70118,8.88672 -0.0336,1.14172 -0.038,2.10229 -0.0312,2.84961 0.002,0.30367 0.007,0.57434 0.0117,0.80078 -4e-5,-0.13871 0,-0.28901 0,-0.44922 0,0.17606 6.8e-4,0.35208 0.002,0.52735 -6.3e-4,-0.0257 -0.001,-0.0512 -0.002,-0.0781 8.5e-4,2.54819 0.0104,1.57357 0.0137,0.89649 -0.005,-0.24833 -0.008,-0.49812 -0.01,-0.74805 0.003,0.1268 0.007,0.23855 0.01,0.31055 4.8e-4,0.0173 0.001,0.21123 0,0.4375 0.27922,14.95613 5.183,26.99668 10.74414,36.1582 l -98.671879,189.02344 -0.002,0.002 -0.002,0.006 c -0.0037,0.007 -2.371577,4.51907 -4.712891,10.26758 -2.3431224,5.75295 -5.7421871,11.6813 -5.7421871,24.73828 0,9.6643 1.9541916,13.49653 4.0429687,19.04883 2.0887774,5.55229 4.8535994,11.4083 8.4296874,17.75586 7.152177,12.6951 17.542942,27.24216 31.882813,41.42578 28.679741,28.36723 74.415234,54.99609 135.535154,54.99609 45.27679,0 81.12133,-15.27055 108.48242,-34.5625 l 49.45508,119.0332 h 46.26953 v 47.89649 h -68.67968 l -68.08008,144.4707 h 464.57422 l -60.0293,-144.4707 h -76.70117 v -47.89649 h 53.40234 l 4.4375,-10.79687 c 2.22475,6.17236 5.50998,11.49233 9.43945,18.5039 7.26624,12.96555 17.82646,27.54328 32.39649,41.62305 29.14005,28.15954 75.41746,53.89453 137.33008,53.89453 126.00222,0 175.26367,-117.33398 175.26367,-117.33398 l 2.17773,-5.39844 v -5.82031 c 0,-20.13453 -8.62695,-35.96094 -8.62695,-35.96094 l 0.50195,0.91406 -100.89257,-191.41992 c 6.80196,-10.70714 13.00781,-25.16776 13.00781,-43.22461 0,-42.13278 -34.31459,-79.33008 -79.06641,-79.33008 -25.14963,0 -43.32107,11.41327 -55.19336,22.72071 -15.56806,-9.14675 -38.2995,-25.29183 -59.76367,-51.58985 l -0.008,-0.008 -0.008,-0.01 C 680.84302,321.99448 649.60859,296.5602 619.4082,277.44922 599.74825,265.00829 582.13911,254.70318 564.01172,248.96484 v -43.16992 z m 0.19922,51.902342 46.85352,65.60742 v 58.6543 c 30.435,0 105.33634,44.57059 147.52734,96.18359 42.126,51.613 91.34375,70.39063 91.34375,70.39063 0,0 18.72047,-30.49024 46.85547,-30.49024 28.047,0 49.06641,23.42708 49.06641,49.33008 0,25.709 -18.71875,39.8125 -18.71875,39.8125 l 110.06445,208.82032 c 0,0 4.66406,8.15059 4.66406,21.05859 0,0 -39.7404,98.55273 -147.4414,98.55273 -107.699,0 -152.18946,-86.83961 -152.18946,-103.22461 0,-11.127 9.32813,-28.1875 9.32813,-28.1875 h -0.002 l 98.37304,-187.60937 c -84.316,-16.452 -124.14375,-53.98102 -159.21875,-82.16602 -35.162,-28.1 -72.68945,-16.38672 -72.68945,-16.38672 l 18.80664,234.54883 h 86.68164 l -32.79883,79.80078 h -63.29687 v 107.89649 h 86.67969 l 35.09765,84.4707 H 299.82422 l 39.80664,-84.4707 H 419.2832 V 724.49609 h -56.24804 l -35.09571,-84.4707 h 88.98047 l 14.05469,-269.7793 c 0,0 -46.85269,-13.99489 -86.67969,-11.71289 -39.74,2.302 -100.65039,-7.04101 -100.65039,-7.04101 l 86.59375,164.18359 c 0,0 5.25,9.41055 5.25,28.18555 0,0 -45.07611,96.16406 -150.41211,96.16406 -105.314998,0 -149.890623,-89.12256 -149.890623,-103.22656 0,-7.627 7.050781,-21.12305 7.050781,-21.12305 L 150.00195,309.22656 c 0,0 -16.44336,-13.43175 -16.44336,-33.96875 0,-0.174 -2.27842,-52.80859 51.51758,-52.80859 53.818,0 51.51758,51.61328 51.51758,51.61328 0,0 49.1537,21.14375 91.3457,9.34375 42.126,-11.713 114.72852,-25.70703 114.72852,-25.70703 V 213.12695 Z M 296.62305,387.63477 c 16.18685,1.14535 33.59407,1.7634 49.38867,0.84961 17.2875,-0.99053 37.97437,2.22188 53.69336,5.36718 l -11.26367,216.17383 h -65.08203 c 26.67194,-27.21641 39.29296,-53.43164 39.29296,-53.43164 l 2.83594,-6.05078 v -6.68164 c 0,-12.18377 -1.72198,-22.01139 -3.73047,-29.20313 -2.00849,-7.19173 -5.32031,-13.59765 -5.32031,-13.59765 l 0.33594,0.61914 z m 276.75586,51.30273 c 6.52218,1.70895 13.85108,4.87329 21.55664,11.03125 28.478,22.88873 67.20824,57.55559 133.75781,78.40234 l -45.26367,86.32422 h -95.95703 z"
       sodipodi:nodetypes="cccccccssssscccccccccccccssssssccccccccccccsssccscccsscccssccccccccsscccssccccccccccccccccccccccccssccssccccccccccccssccccccccccc" />
  </g>
</svg>
