<?xml version="1.0" encoding="UTF-8" standalone="no"?>
<svg
   class="set-header-symbol"
   focusable="false"
   aria-hidden="true"
   viewBox="0 0 1744 1024"
   version="1.1"
   id="svg1"
   sodipodi:docname="lgn-border.svg"
   width="1744"
   height="1024"
   inkscape:version="1.4.2 (f4327f4, 2025-05-13)"
   xmlns:inkscape="http://www.inkscape.org/namespaces/inkscape"
   xmlns:sodipodi="http://sodipodi.sourceforge.net/DTD/sodipodi-0.dtd"
   xmlns="http://www.w3.org/2000/svg"
   xmlns:svg="http://www.w3.org/2000/svg">
  <defs
     id="defs1" />
  <sodipodi:namedview
     id="namedview1"
     pagecolor="#ffffff"
     bordercolor="#000000"
     borderopacity="0.25"
     inkscape:showpageshadow="2"
     inkscape:pageopacity="0.0"
     inkscape:pagecheckerboard="0"
     inkscape:deskcolor="#d1d1d1"
     inkscape:zoom="0.56278518"
     inkscape:cx="869.78125"
     inkscape:cy="461.09956"
     inkscape:window-width="1920"
     inkscape:window-height="1017"
     inkscape:window-x="-8"
     inkscape:window-y="-8"
     inkscape:window-maximized="1"
     inkscape:current-layer="svg1" />
  <path
     id="path3"
     style="baseline-shift:baseline;display:inline;overflow:visible;opacity:1;vector-effect:none;paint-order:stroke fill markers;enable-background:accumulate;stop-color:#000000;stop-opacity:1"
     d="m 1152.582,88.144531 -56.2363,87.624999 c 0,0 -17.5187,27.1818 -40.9941,53.94336 -11.7377,13.38078 -24.9285,26.44208 -36.7832,35.23633 -11.8548,8.79425 -22.05735,12.07031 -24.97856,12.07031 -2.98402,0 -12.39753,-3.08094 -23.54101,-11.70312 -11.14349,-8.62219 -23.49532,-21.55743 -34.39844,-34.84766 -21.80624,-26.58045 -37.69531,-53.63086 -37.69531,-53.63086 L 872.055,88.658 v 0 l -26.09016,88.10567 c 0,0 -16.0084,27.0782 -37.875,53.68555 -10.9333,13.30368 -23.30055,26.25687 -34.42968,34.89062 -11.12913,8.63376 -20.52436,11.67969 -23.25977,11.67969 -2.73541,0 -12.93924,-3.25546 -24.79492,-12.06055 -11.85568,-8.80508 -25.07309,-21.88001 -36.84766,-35.27148 -23.54912,-26.78294 -41.18554,-53.98633 -41.18554,-53.98633 L 591.37109,88.658 594.20703,382.90625 483.25781,341.67969 c -1.35146,-6.53835 -3.4547,-13.80892 -6.99609,-21.2793 -10.95428,-23.10743 -38.63555,-47.86886 -80.90234,-51.93555 l -0.0137,-0.002 C 323.82394,261.55675 107.08984,255.26953 107.08984,255.26953 l -93.830074,-2.81641 289.779294,219.68165 0.30078,0.21484 c 0,0 22.81012,16.97861 53.79688,25.21875 15.49338,4.12007 33.96587,6.40267 53.54492,1.43555 12.60373,-3.19751 25.22523,-9.92762 36.19922,-19.82813 l 148.56641,57.02344 c 0.52276,13.15483 1.12858,27.14491 2.16796,45.49219 l -225.71679,84.95312 47.6289,135.7207 239.05469,-79.5957 C 686.9517,748.50381 764.96978,816.0735 857.375,866.85156 l 14.44727,3.70899 h 0.002 7.92187 l 6.74414,-3.70313 C 978.98931,816.0788 1057.0299,748.50459 1085.4043,722.76953 l 239.0566,79.5957 47.6289,-135.7207 -225.7168,-84.95312 c 1.0394,-18.34731 1.6472,-32.33736 2.17,-45.49219 l 148.5644,-57.02344 c 10.9723,9.89946 23.5934,16.63041 36.1953,19.82813 19.5773,4.9677 38.0464,2.68502 53.5371,-1.43555 30.9815,-8.24113 53.7852,-25.2207 53.7852,-25.2207 l 0.2988,-0.21485 289.8164,-219.67969 -93.8398,2.81641 c 0,0 -216.763,6.29047 -288.2715,13.19531 -42.2652,4.06653 -69.9506,28.80324 -80.9394,51.89258 -3.5608,7.48162 -5.6786,14.76748 -7.0411,21.31446 l -110.873,41.2246 z M 622.36914,191.97266 c 0,0 74.28135,115.04687 128.03125,115.04687 53.7499,0 121.42383,-115.04687 121.42383,-115.04687 h 0.23078 c 0,0 67.22884,115.04687 121.53484,115.04687 54.16506,0 128.00396,-115.04687 128.00396,-115.04687 l -2.2305,234.24023 169.123,-62.88477 c 0,0 -4.2311,-58.53845 63.0274,-65.00195 67.233,-6.492 286.2871,-13.07031 286.2871,-13.07031 l -214.707,162.74805 c 0,0 -78.1851,56.30934 -117.1641,-4.34766 l -186.5664,71.60937 c 0,0 -2.1172,58.53774 -4.3477,86.67774 l 219.0547,82.44531 -28.1406,80.1875 -227.7774,-75.83984 c 0,0 -95.40107,91.05472 -206.09957,151.82422 h -0.22851 -0.002 C 761.23539,779.79105 665.83594,688.73633 665.83594,688.73633 l -227.77735,75.83984 -28.13867,-80.1875 219.05274,-82.44531 c -2.2305,-28.14 -4.34571,-86.67774 -4.34571,-86.67774 L 438.05859,443.65625 c -38.979,60.657 -117.1914,4.34766 -117.1914,4.34766 L 106.18945,285.25586 c 0,0 219.05411,6.57681 286.28711,13.07031 67.2585,6.4635 62.91016,65.00196 62.91016,65.00195 l 169.24023,62.88477 z"
     sodipodi:nodetypes="ccsssssccccsssssccccsccccccsscccccccccccccccccsscccccsccccsccsccccccccccccccccccccccccccc" />
</svg>
