<?xml version="1.0" encoding="UTF-8" standalone="no"?>
<svg
   class="set-header-symbol"
   focusable="false"
   aria-hidden="true"
   viewBox="0 0 1164 1024"
   version="1.1"
   id="svg1"
   sodipodi:docname="ons-border.svg"
   width="1164"
   height="1024"
   inkscape:version="1.4.2 (f4327f4, 2025-05-13)"
   xmlns:inkscape="http://www.inkscape.org/namespaces/inkscape"
   xmlns:sodipodi="http://sodipodi.sourceforge.net/DTD/sodipodi-0.dtd"
   xmlns="http://www.w3.org/2000/svg"
   xmlns:svg="http://www.w3.org/2000/svg">
  <defs
     id="defs1" />
  <sodipodi:namedview
     id="namedview1"
     pagecolor="#ffffff"
     bordercolor="#000000"
     borderopacity="0.25"
     inkscape:showpageshadow="2"
     inkscape:pageopacity="0.0"
     inkscape:pagecheckerboard="0"
     inkscape:deskcolor="#d1d1d1"
     inkscape:zoom="0.79589844"
     inkscape:cx="566.02699"
     inkscape:cy="512"
     inkscape:window-width="1920"
     inkscape:window-height="1017"
     inkscape:window-x="-8"
     inkscape:window-y="-8"
     inkscape:window-maximized="1"
     inkscape:current-layer="svg1" />
  <path
     id="path2"
     style="opacity:1;baseline-shift:baseline;display:inline;overflow:visible;vector-effect:none;paint-order:stroke fill markers;enable-background:accumulate;stop-color:#000000;stop-opacity:1"
     inkscape:label="path2"
     d="M 490.11523 75.902344 L 421.41016 318.31836 L 252.11133 155.21484 L 176.29492 812.21484 L 6.8710938 915.97656 L 213.08984 915.97656 L 209.17188 918.94531 L 453.81445 918.94531 L 517.95117 676.28125 C 533.89248 682.01387 554.03677 686.80469 577.64453 686.80469 L 586.44141 686.80469 L 586.44336 686.80469 C 610.05787 686.80469 630.20705 682.01216 646.15039 676.27734 L 710.37109 918.94531 L 954.8418 918.94531 L 950.92773 915.97656 L 1157.1289 915.97656 L 987.88477 812.22266 L 912.06641 155.21484 L 742.76953 318.31836 L 674.06445 75.902344 L 582.52344 350.46484 L 581.6543 350.46484 L 490.11523 75.902344 z M 492.43945 177.72266 L 560.0332 380.46484 L 604.14453 380.46484 L 671.74023 177.72266 L 727.54883 374.63867 L 889.21484 218.88867 L 959.75586 830.16797 L 1050.791 885.97656 L 903.85742 885.97656 L 798.08984 453.97461 L 748.13086 527.39648 L 780.47656 824.31836 L 865.66211 888.94531 L 733.46484 888.94531 L 665.80078 633.27539 C 665.80078 633.27539 636.42436 656.80469 586.44336 656.80469 L 586.44141 656.80469 L 577.64453 656.80469 C 527.66353 656.80469 498.28711 633.27539 498.28711 633.27539 L 430.71289 888.94531 L 298.42578 888.94531 L 383.70117 824.31836 L 416.04688 527.39648 L 365.99805 453.97461 L 260.23047 885.97656 L 113.29688 885.97656 L 204.42188 830.16797 L 274.96289 218.88867 L 436.62891 374.63867 L 492.43945 177.72266 z M 379.12891 526.50195 L 385.02344 535.15039 L 355.27734 808.21875 L 299.87695 850.20508 L 379.12891 526.50195 z M 784.97852 526.57227 L 864.20898 850.18555 L 808.90234 808.22656 L 779.15234 535.13477 L 784.97852 526.57227 z " />
</svg>
