<?xml version="1.0" encoding="UTF-8" standalone="no"?>
<svg
   class="set-header-symbol"
   focusable="false"
   aria-hidden="true"
   viewBox="0 0 1164 1024"
   version="1.1"
   id="svg1"
   sodipodi:docname="ons.svg"
   width="1164"
   height="1024"
   inkscape:version="1.4.2 (f4327f4, 2025-05-13)"
   xmlns:inkscape="http://www.inkscape.org/namespaces/inkscape"
   xmlns:sodipodi="http://sodipodi.sourceforge.net/DTD/sodipodi-0.dtd"
   xmlns="http://www.w3.org/2000/svg"
   xmlns:svg="http://www.w3.org/2000/svg">
  <defs
     id="defs1" />
  <sodipodi:namedview
     id="namedview1"
     pagecolor="#ffffff"
     bordercolor="#000000"
     borderopacity="0.25"
     inkscape:showpageshadow="2"
     inkscape:pageopacity="0.0"
     inkscape:pagecheckerboard="0"
     inkscape:deskcolor="#d1d1d1"
     inkscape:zoom="0.79589844"
     inkscape:cx="469.28098"
     inkscape:cy="512"
     inkscape:window-width="1920"
     inkscape:window-height="1017"
     inkscape:window-x="-8"
     inkscape:window-y="-8"
     inkscape:window-maximized="1"
     inkscape:current-layer="svg1" />
  <path
     d="m 586.399,656.804 c 49.981,0 79.358,-23.528 79.358,-23.528 l 67.663,255.669 h 132.198 l -85.185,-64.626 -32.346,-296.922 49.959,-73.423 105.767,432.002 h 146.934 L 959.712,830.168 889.17,218.888 727.504,374.638 671.696,177.723 604.1,380.465 h -44.111 l -67.594,-202.742 -55.81,196.915 -161.666,-155.75 -70.542,611.28 -91.124,55.808 h 146.934 l 105.767,-432.002 50.048,73.423 -32.346,296.922 -85.274,64.626 h 132.287 l 67.574,-255.669 c 0,0 29.377,23.528 79.358,23.528 h 8.796 z"
     id="path1" />
</svg>
