<?xml version="1.0" encoding="UTF-8" standalone="no"?>
<svg
   class="set-header-symbol"
   focusable="false"
   aria-hidden="true"
   viewBox="0 0 1024 1024"
   version="1.1"
   id="svg1"
   sodipodi:docname="scg-border.svg"
   width="1024"
   height="1024"
   inkscape:version="1.4.2 (f4327f4, 2025-05-13)"
   xmlns:inkscape="http://www.inkscape.org/namespaces/inkscape"
   xmlns:sodipodi="http://sodipodi.sourceforge.net/DTD/sodipodi-0.dtd"
   xmlns="http://www.w3.org/2000/svg"
   xmlns:svg="http://www.w3.org/2000/svg">
  <defs
     id="defs1" />
  <sodipodi:namedview
     id="namedview1"
     pagecolor="#ffffff"
     bordercolor="#000000"
     borderopacity="0.25"
     inkscape:showpageshadow="2"
     inkscape:pageopacity="0.0"
     inkscape:pagecheckerboard="0"
     inkscape:deskcolor="#d1d1d1"
     inkscape:zoom="0.79589844"
     inkscape:cx="558.48834"
     inkscape:cy="508.23067"
     inkscape:window-width="1920"
     inkscape:window-height="1017"
     inkscape:window-x="-8"
     inkscape:window-y="-8"
     inkscape:window-maximized="1"
     inkscape:current-layer="svg1" />
  <path
     id="path4"
     style="baseline-shift:baseline;display:inline;overflow:visible;opacity:1;vector-effect:none;paint-order:stroke fill markers;enable-background:accumulate;stop-color:#000000;stop-opacity:1"
     d="M 854.32422 3.2109375 L 511.06445 328.77734 L 532.82227 84.810547 L 427.36719 297.85156 L 392.21875 161.04102 L 343.57227 369.83203 L 303.05273 291.5918 L 275.64062 491.00391 L 185.55664 632.89648 L 17.328125 819.28906 L 77.265625 951.38672 L 75.617188 956.08398 L 103.53125 1016.4805 L 323.16992 980.81055 L 422.31836 906.66211 L 422.31836 931.80664 L 486.1875 995.63281 L 528.11133 950.33789 L 564.36328 932.10938 L 558.48047 889.16992 L 654.37305 865.29102 L 612.58594 805.98633 L 675.41016 741.93945 L 1003.9863 832.93555 L 786.28711 570.30664 L 826.61133 494.13281 L 800.81055 450.61328 L 856.83594 390.49609 L 828.63672 331.71875 L 1006.6719 34.591797 L 805.13477 163.73242 L 854.32422 3.2109375 z M 792.22852 103.45117 L 752.4707 233.19727 L 920.33203 125.41992 L 794.50977 329.93945 L 820.93359 385.01758 L 763.54883 446.5918 L 792.22852 494.96289 L 750.29688 574.17188 L 924.67773 780.85938 L 924.67773 780.86133 L 666.43164 708.25195 L 573.66211 802.82812 L 604.61914 846.76367 L 525.10352 866.56641 L 531.73047 914.9375 L 509.78125 925.97461 L 485.34375 952.37891 L 452.31836 919.37305 L 452.31836 846.76562 L 311.0957 952.37891 L 121.20703 983.2168 L 107.95312 954.54297 L 123.38086 910.60742 L 178.56445 917.20898 L 183.01953 877.60352 L 229.29883 897.40625 L 213.87305 866.56641 L 262.43164 871.00391 L 262.43164 840.26953 L 306.64258 837.99805 L 247.00586 794.0625 L 235.92578 844.59961 L 198.44531 824.79688 L 189.64453 859.9668 L 156.51367 851.19922 L 156.51367 875.43945 L 110.12891 862.23633 L 94.701172 917.20703 L 52.769531 824.79688 L 209.52539 651.11523 L 304.4707 501.56445 L 319.89648 389.34961 L 355.20117 457.52344 L 392.50781 286.00781 L 421.4668 382.74805 L 491.97266 228.86914 L 472.19727 406.98633 L 792.22852 103.45117 z M 452.31836 505.89453 L 337.49414 595.2168 C 337.49414 595.2168 355.94181 644.51172 403.75781 644.51172 L 403.75977 644.51172 C 451.60477 644.51172 478.82436 569.73753 452.31836 505.89453 z " />
</svg>
